<?xml version="1.0" encoding="UTF-8"?>
<svg width="1984px" height="482px" viewBox="0 0 1984 482" version="1.1" xmlns="http://www.w3.org/2000/svg" xmlns:xlink="http://www.w3.org/1999/xlink">
    <!-- Generator: Sketch 61.2 (89653) - https://sketch.com -->
    <title>logo-new</title>
    <desc>Created with Sketch.</desc>
    <defs>
        <filter x="-0.7%" y="-2.8%" width="101.4%" height="105.7%" filterUnits="objectBoundingBox" id="filter-1">
            <feOffset dx="3" dy="2" in="SourceAlpha" result="shadowOffsetOuter1"></feOffset>
            <feGaussianBlur stdDeviation="2" in="shadowOffsetOuter1" result="shadowBlurOuter1"></feGaussianBlur>
            <feColorMatrix values="0 0 0 0 0   0 0 0 0 0   0 0 0 0 0  0 0 0 0.5 0" type="matrix" in="shadowBlurOuter1" result="shadowMatrixOuter1"></feColorMatrix>
            <feMerge>
                <feMergeNode in="shadowMatrixOuter1"></feMergeNode>
                <feMergeNode in="SourceGraphic"></feMergeNode>
            </feMerge>
        </filter>
    </defs>
    <g id="Page-1" stroke="none" stroke-width="1" fill="none" fill-rule="evenodd">
        <g id="logo-new" filter="url(#filter-1)" transform="translate(1.000000, 2.000000)" fill="#FF7D00" fill-rule="nonzero">
            <path d="M682.9,181.3 C663.9,156.3 634.4,138.1 591.5,138.1 C506,138.1 442.9,212.2 442.9,305.8 C442.9,400 506,474.1 591.2,474.1 C634.4,474.1 663.9,456.2 682.9,431.2 L682.9,465.6 L780.9,465.6 L780.9,146.6 L682.9,146.6 L682.9,181.3 L682.9,181.3 Z M615.5,379.2 C574.9,379.2 547.6,347.7 547.6,306.1 C547.6,264.5 574.9,233 615.5,233 C655.5,233 683.7,263.9 683.7,306.1 C683.7,348.3 655.5,379.2 615.5,379.2 Z" id="Shape"></path>
            <path d="M1194.1,138 C1150.2,138 1114.6,154.6 1093.1,191.3 C1073.6,157.2 1037.8,138 995.8,138 C953.2,138 920.8,153.3 900.8,186.7 L900.8,146.5 L803.8,146.5 L803.8,465.5 L904.8,465.5 L904.8,294 C904.8,252.7 928.7,233.6 957,233.6 C988.5,233.6 1007.8,254.7 1007.8,292.4 L1007.8,465.6 L1108.8,465.6 L1108.8,294 C1108.8,252.7 1132.8,233.6 1160.8,233.6 C1192.6,233.6 1211.8,254.7 1211.8,292.4 L1211.8,465.6 L1312.80032,465.6 L1312.80032,256.3 C1312.9,182.9 1266.9,138 1194.1,138 Z" id="Path"></path>
            <circle id="Oval" cx="1386.9" cy="417.7" r="47.6"></circle>
            <polygon id="Path" points="1690.9 4.6 1330.9 4.6 1330.9 94.6 1458.9 94.6 1458.9 465.6 1558.9 465.6 1558.9 94.6 1690.9 94.6"></polygon>
            <path d="M1877.9,5.6 C1858,188.6 1761.1,368.6 1761.1,368.6 L1700,139.6 L1594.1,139.6 L1682.4,464.6 L1821.2,465.6 C1821.2,465.6 1975.9,209.9 1975.9,5.6 L1877.9,5.6 Z" id="Path"></path>
            <path d="M236,115.5 C169.5,115.5 115.6,169.4 115.6,235.9 C115.6,302.4 169.5,356.3 236,356.3 C302.5,356.3 356.4,302.4 356.4,235.9 C356.4,169.4 302.5,115.5 236,115.5 Z M236,342.3 C177.3,342.3 129.6,294.7 129.6,235.9 C129.6,177.1 177.3,129.6 236,129.6 C294.7,129.6 342.4,177.2 342.4,236 C342.4,294.8 294.8,342.3 236,342.3 Z" id="Shape"></path>
            <circle id="Oval" cx="237" cy="235.9" r="16.9"></circle>
            <path d="M236,0.2 C105.8,0.2 0.3,105.7 0.3,235.9 C0.3,288.1 17.3,336.3 46,375.4 L1.5,471 L97.2,426.4 C136.1,454.8 184.1,471.6 236,471.6 C320.2,471.6 394.1,427.5 435.8,361.1 L350,307 C326.3,344.9 284.1,370.2 236.1,370.2 C161.9,370.2 101.8,310.1 101.8,235.9 C101.8,161.7 161.9,101.6 236.1,101.6 C284.1,101.6 326.3,126.8 350,164.8 L435.8,110.7 C394.1,44.3 320.2,0.2 236,0.2 Z" id="Path"></path>
            <path d="M224.4,151.5 C223.6,148.1 220.2,146 216.8,146.6 C200.6,150.4 185.1,158.6 172.5,171.2 C160,183.7 151.9,198.8 148,214.8 C147.9,215 147.9,215.2 147.8,215.4 C147,218.9 149.2,222.4 152.7,223.3 C156.2,224.1 159.8,222 160.6,218.5 C163.8,204.6 170.7,191.3 181.6,180.4 C192.5,169.5 205.7,162.6 219.7,159.4 C223.2,158.6 225.3,155 224.4,151.5 Z" id="Path"></path>
        </g>
    </g>
</svg>