<svg xmlns="http://www.w3.org/2000/svg" viewBox="0 0 815.587 121.269"><path fill="#a4872f" d="M63.755 0l15.051 46.321h48.704L88.107 74.949l15.051 46.32-39.403-28.628-39.403 28.628 15.051-46.32L0 46.321h48.704L63.755 0zM235.774 0l15.051 46.321h48.704l-39.403 28.628 15.051 46.32-39.403-28.628-39.403 28.628 15.051-46.32-39.403-28.628h48.705L235.774 0zM407.793 0l15.051 46.321h48.704l-39.402 28.628 15.05 46.32-39.403-28.628-39.402 28.628 15.05-46.32-39.403-28.628h48.705L407.793 0zM579.813 0l15.05 46.321h48.705l-39.403 28.628 15.05 46.32-39.402-28.628-39.403 28.628 15.05-46.32-39.402-28.628h48.704L579.813 0zM751.832 0l15.05 46.321h48.705l-39.403 28.628 15.051 46.32-39.403-28.628-39.403 28.628 15.051-46.32-39.403-28.628h48.704L751.832 0z"/></svg>